<?xml version="1.0" encoding="UTF-8" standalone="no"?><!DOCTYPE svg PUBLIC "-//W3C//DTD SVG 1.1//EN" "http://www.w3.org/Graphics/SVG/1.1/DTD/svg11.dtd"><svg width="100%" height="100%" viewBox="0 0 246 246" version="1.1" xmlns="http://www.w3.org/2000/svg" xmlns:xlink="http://www.w3.org/1999/xlink" xml:space="preserve" xmlns:serif="http://www.serif.com/" style="fill-rule:evenodd;clip-rule:evenodd;stroke-linecap:round;stroke-linejoin:round;stroke-miterlimit:1.5;"><rect id="Artboard1" x="0" y="0" width="245.76" height="245.76" style="fill:none;"/><g id="Artboard11" serif:id="Artboard1"><g><path d="M78.982,158.259c-3.471,-26.817 6.328,-50.871 26.174,-57.776c15.525,-5.401 36.866,-8.199 50.306,6.041c7.121,7.545 10.785,27.244 13.97,38.448c5.429,19.105 5.553,38.156 -0.576,52.124c-3.759,8.568 -10.352,14.966 -18.097,19.05l0,13.272l-34.63,-0l0,-14.071c-13.462,-6.762 -23.553,-10.634 -30.065,-36.676c-6.048,6.415 -14.173,-1.572 -15.758,-6.987c-1.62,-5.538 2.081,-11.502 8.26,-13.311c0.138,-0.04 0.277,-0.078 0.416,-0.114Z" style="fill:#efb030;stroke:#000;stroke-width:2px;"/><path d="M89.832,234.503c14.844,-10.609 23.509,-6.221 44.026,-5.502c20.518,-1.66 36.894,-3.404 48.29,5.502l-92.316,-0Z" style="fill:#006aff;stroke:#000;stroke-width:2px;"/><path d="M74.55,167.073c-0,-0 2.138,-4.675 4.096,-4.238c1.958,0.437 2.764,0.38 4.339,1.715c-1.735,-1.184 -4.788,-2.91 -4.497,5.127c0.081,2.233 3.444,0.837 4.336,5.464c0.514,2.661 -5.448,0.661 -5.448,0.661" style="fill:none;stroke:#000;stroke-width:2px;"/><path d="M116.277,114.79c-0.89,-1.54 -2.863,-2.068 -4.404,-1.178l-20.863,12.053c-1.54,0.89 -2.069,2.863 -1.179,4.404l3.226,5.582c0.89,1.541 2.863,2.069 4.403,1.179l20.864,-12.054c1.54,-0.89 2.068,-2.863 1.178,-4.403l-3.225,-5.583Z" style="stroke:#000;stroke-width:2px;"/><path d="M159.386,108.474c-0.059,-1.523 -1.342,-2.713 -2.865,-2.655l-17.027,0.65c-1.523,0.058 -2.712,1.342 -2.654,2.865l0.21,5.519c0.058,1.523 1.342,2.713 2.865,2.655l17.027,-0.65c1.523,-0.058 2.712,-1.342 2.654,-2.865l-0.21,-5.519Z" style="stroke:#000;stroke-width:2px;"/><path d="M140.544,142.922c1.441,2.867 11.945,16.34 12.323,23.004c0.29,5.116 -2.82,5.326 -4.122,5.436c-3.214,0.273 -6.802,-0.652 -9.899,-2.163" style="fill:none;stroke:#000;stroke-width:2px;"/><path d="M142.423,190.411c-0,0 0.723,-2.556 3.12,-2.731c2.397,-0.176 7.905,0.59 7.275,7.761c-0.222,2.522 -1.023,2.938 -3.419,3.697c-3.181,1.008 -7.057,-2.531 -7.057,-2.531" style="fill:#fcfcfc;stroke:#000;stroke-width:2px;"/><path d="M111.555,134.976c8.679,-3.796 18.204,-1.212 21.256,5.767c3.053,6.979 -1.515,15.727 -10.194,19.523c-8.679,3.796 -18.203,1.212 -21.256,-5.767c-3.052,-6.979 1.516,-15.727 10.194,-19.523Z" style="fill:#fff;stroke:#000;stroke-width:2px;"/><path d="M147.84,124.358c5.262,-2.302 11.361,0.008 13.612,5.154c2.251,5.146 -0.194,11.193 -5.456,13.494c-5.261,2.302 -11.361,-0.008 -13.612,-5.154c-2.251,-5.146 0.194,-11.193 5.456,-13.494Z" style="fill:#fff;stroke:#000;stroke-width:2px;"/><ellipse cx="119.436" cy="140.291" rx="4.693" ry="4.63"/><ellipse cx="152.912" cy="129.633" rx="4.693" ry="4.63"/><path d="M81.866,157.42c-0.71,0.201 -2.807,0.45 -2.928,0.486c-6.179,1.808 -9.764,7.814 -8.594,13.757c1.09,5.536 9.709,13.403 15.757,6.988c1.647,6.586 3.523,11.754 5.624,15.91c-0.018,1.812 -1.166,3.498 -2.978,4.115l-8.319,2.834c-2.296,0.782 -4.795,-0.447 -5.577,-2.743l-9.016,-26.469c-3.754,-9.503 -5.987,-21.395 -5.987,-34.293c-0,-21.26 8.321,-38.875 13.74,-49.639c0,-0 11.218,-29.68 14.141,-30.695c3.872,-1.671 4.081,17.231 4.081,17.231c1.9,-2.281 3.763,-4.571 5.762,-7.051c10.192,-12.643 16.591,-22.828 19.035,-29.906c2.063,-5.974 2.129,-10.351 4.143,-10.494c4.597,-0.325 6.181,12.605 6.811,23.89c14.975,-12.381 30.532,-39.868 30.708,-41.878c2.33,-1.707 7.952,13.149 8.167,31.476c0.428,36.544 -8.878,53.818 -13.784,57.919c-2.044,1.708 0.655,4.362 4.452,5.752c-6.696,-1.211 -31.205,4.839 -44.84,11.473c-0.087,0.042 -0.175,0.085 -0.265,0.128c-3.485,2.845 -7.067,6.676 -13.003,12.759c-8.757,8.974 -8.526,10.806 -5.991,20.602c1.165,4.502 2.989,8.801 3.593,9.848c1.415,2.457 5.157,9.732 6,14.467c0.843,4.735 0.298,9.839 -0.748,10.916c-1.046,1.077 -3.385,0.733 -5.294,0.914c-1.909,0.182 -4.777,0.243 -6.22,-1.067c-1.442,-1.309 -0.822,-6.658 -1.195,-9.584c-0.47,-3.681 -2.881,-9.689 -3.297,-10.826c-0.283,-0.771 -2.546,-4.496 -3.978,-6.82Z"/></g></g></svg>